{"title":"Battleship.2012.HDCAMaudio.XviD-Mripper","uid":7287798,"size":1674106230,"categoryP":"video","categoryS":"movies","magnet":"?xt=urn:btih:eb88c52cee433299524ab5467a2ba2d190901b9b&amp;dn=Battleship.2012.HDCAMaudio.XviD-Mripper&amp;tr=udp%3A%2F%2Ftracker.openbittorrent.com%3A80&amp;tr=udp%3A%2F%2Fopen.demonii.com%3A1337&amp;tr=udp%3A%2F%2Ftracker.coppersurfer.tk%3A6969&amp;tr=udp%3A%2F%2Fexodus.desync.com%3A6969","seeders":0,"leechers":1,"uploader":"Mripper","files":1,"time":1337636001,"description":"Video: Xvid 720x318 29.97fps \nAudio: MPEG Audio Layer 3 44100Hz stereo 128kbps \n\nComplete name                  : Battleship.2012.HDCAMaudio.XviD-Mripper\nFormat                         : AVI\nFormat/Info                    : Audio Video Interleave\nFile size                      : 1.56 GiB\nDuration                       : 2h 1mn\nOverall bit rate               : 1 839 Kbps\nWriting library                : VirtualDub build 31536/release\n\nVideo\nID                             : 0\nFormat                         : MPEG-4 Visual\nFormat profile                 : Advanced Simple@L5\nFormat settings, BVOP          : 2\nFormat settings, QPel          : No\nFormat settings, GMC           : No warppoints\nFormat settings, Matrix        : Default (H.263)\nMuxing mode                    : Packed bitstream\nCodec ID                       : XVID\nCodec ID/Hint                  : XviD\nDuration                       : 2h 1mn\nBit rate                       : 1 699 Kbps\nWidth                          : 720 pixels\nHeight                         : 318 pixels\nDisplay aspect ratio           : 2.25:1\nFrame rate                     : 29.970 fps\nColor space                    : YUV\nChroma subsampling             : 4:2:0\nBit depth                      : 8 bits\nScan type                      : Progressive\nCompression mode               : Lossy\nBits/(Pixel*Frame)             : 0.248\nStream size                    : 1.44 GiB (92%)\nWriting library                : XviD 64\n\nAudio\nID                             : 1\nFormat                         : MPEG Audio\nFormat version                 : Version 1\nFormat profile                 : Layer 3\nCodec ID                       : 55\nCodec ID/Hint                  : MP3\nDuration                       : 2h 1mn\nBit rate mode                  : Constant\nBit rate                       : 128 Kbps\nChannel(s)                     : 2 channels\nSampling rate                  : 44.1 KHz\nCompression mode               : Lossy\nDelay relative to video        : 3s 100ms\nStream size                    : 111 MiB (7%)\nAlignment                      : Split accross interleaves\nInterleave, duration           : 33 ms (1.00 video frame)\nInterleave, preload duration   : 500 ms\n\nVideo proof screenshots please seed\n &lt;a href=&quot;\nhttp://img839.imageshack.us/img839/7977/vlcsnap2012052121h27m20.png&quot; rel=&quot;nofollow&quot; target=&quot;_NEW&quot;&gt;\nhttp://img839.imageshack.us/img839/7977/vlcsnap2012052121h27m20.png&lt;/a&gt; &lt;a href=&quot;\nhttp://img407.imageshack.us/img407/7200/vlcsnap2012052121h28m45.png&quot; rel=&quot;nofollow&quot; target=&quot;_NEW&quot;&gt;\nhttp://img407.imageshack.us/img407/7200/vlcsnap2012052121h28m45.png&lt;/a&gt; &lt;a href=&quot;\nhttp://img521.imageshack.us/img521/9646/vlcsnap2012052121h26m57.png&quot; rel=&quot;nofollow&quot; target=&quot;_NEW&quot;&gt;\nhttp://img521.imageshack.us/img521/9646/vlcsnap2012052121h26m57.png&lt;/a&gt; &lt;a href=&quot;\nhttp://img715.imageshack.us/img715/964/vlcsnap2012052121h25m52.png&quot; rel=&quot;nofollow&quot; target=&quot;_NEW&quot;&gt;\nhttp://img715.imageshack.us/img715/964/vlcsnap2012052121h25m52.png&lt;/a&gt;\n\nEnjoy","torrent":{"xt":"urn:btih:eb88c52cee433299524ab5467a2ba2d190901b9b","amp;dn":"Battleship.2012.HDCAMaudio.XviD-Mripper","amp;tr":["udp%3A%2F%2Ftracker.openbittorrent.com%3A80","udp%3A%2F%2Fopen.demonii.com%3A1337","udp%3A%2F%2Ftracker.coppersurfer.tk%3A6969","udp%3A%2F%2Fexodus.desync.com%3A6969"],"infoHash":"eb88c52cee433299524ab5467a2ba2d190901b9b","infoHashBuffer":{"type":"Buffer","data":[235,136,197,44,238,67,50,153,82,74,181,70,122,43,162,209,144,144,27,155]},"announce":[],"urlList":[]}}